<?xml version="1.0" encoding="UTF-8" standalone="no"?>
<!DOCTYPE svg PUBLIC "-//W3C//DTD SVG 1.1//EN" "http://www.w3.org/Graphics/SVG/1.1/DTD/svg11.dtd">
<svg width="100%" height="100%" viewBox="0 0 200 200" version="1.1" xmlns="http://www.w3.org/2000/svg" xmlns:xlink="http://www.w3.org/1999/xlink" xml:space="preserve" xmlns:serif="http://www.serif.com/" style="fill-rule:evenodd;clip-rule:evenodd;stroke-linecap:round;stroke-linejoin:round;stroke-miterlimit:1.5;">
    <g transform="matrix(1.36273,1.03235,-1.03235,1.36273,44.8464,-127.21)">
        <path d="M58.546,69.176C72.963,42.317 110.81,23.697 138.191,44.275C166.801,65.775 163.558,104.496 128.872,125.339C102.563,141.148 106.654,114.04 95.111,105.182C86.746,98.762 75.554,119.218 65.54,117.137C54.175,114.775 46.354,91.888 58.546,69.176Z" style="fill:none;stroke:black;stroke-width:4.68px;"/>
    </g>
    <g transform="matrix(1.36273,1.03235,-1.03235,1.36273,60.4065,-145.55)">
        <circle cx="78.865" cy="82.801" r="7.878"/>
    </g>
    <g transform="matrix(1.36273,1.03235,-1.03235,1.36273,20.5616,-121.762)">
        <circle cx="78.865" cy="82.801" r="7.878"/>
    </g>
    <g transform="matrix(1.36273,1.03235,-1.03235,1.36273,105.504,-143.774)">
        <circle cx="78.865" cy="82.801" r="7.878"/>
    </g>
    <g transform="matrix(1.36273,1.03235,-1.03235,1.36273,137.931,-112.178)">
        <circle cx="78.865" cy="82.801" r="7.878"/>
    </g>
    <g transform="matrix(1.20546,0.913217,-0.913217,1.20546,72.7892,-25.2471)">
        <circle cx="78.865" cy="82.801" r="7.878"/>
    </g>
</svg>
